<svg width="47" height="47" viewBox="0 0 47 47" fill="none" xmlns="http://www.w3.org/2000/svg">
<path d="M16.1613 23.8982C16.1613 19.6806 19.5784 16.2607 23.7948 16.2607C28.0112 16.2607 31.4301 19.6806 31.4301 23.8982C31.4301 28.1158 28.0112 31.5358 23.7948 31.5358C19.5784 31.5358 16.1613 28.1158 16.1613 23.8982ZM12.0338 23.8982C12.0338 30.3957 17.2992 35.6626 23.7948 35.6626C30.2904 35.6626 35.5558 30.3957 35.5558 23.8982C35.5558 17.4007 30.2904 12.1338 23.7948 12.1338C17.2992 12.1338 12.0338 17.4007 12.0338 23.8982ZM33.2729 11.6673C33.2727 12.2111 33.4337 12.7427 33.7355 13.195C34.0374 13.6472 34.4665 13.9997 34.9686 14.208C35.4707 14.4163 36.0234 14.471 36.5566 14.3651C37.0898 14.2593 37.5796 13.9976 37.9641 13.6133C38.3487 13.2289 38.6106 12.7391 38.7169 12.2059C38.8232 11.6726 38.769 11.1198 38.5611 10.6173C38.3533 10.1149 38.0012 9.68537 37.5493 9.3831C37.0975 9.08082 36.5661 8.91936 36.0225 8.91915H36.0214C35.2928 8.91949 34.594 9.2091 34.0787 9.72438C33.5634 10.2397 33.2736 10.9385 33.2729 11.6673ZM14.5415 42.5471C12.3085 42.4453 11.0947 42.0733 10.2881 41.7589C9.21877 41.3425 8.45579 40.8465 7.65359 40.0452C6.85139 39.2439 6.35483 38.4814 5.94036 37.4117C5.62593 36.6053 5.25396 35.3908 5.15245 33.1571C5.04141 30.7421 5.01924 30.0167 5.01924 23.8984C5.01924 17.7801 5.04325 17.0567 5.15245 14.6397C5.25415 12.406 5.62886 11.1939 5.94036 10.3851C6.35666 9.31541 6.85249 8.55221 7.65359 7.74978C8.45469 6.94735 9.21694 6.45064 10.2881 6.03605C11.0943 5.72153 12.3085 5.34946 14.5415 5.24792C16.9558 5.13685 17.681 5.11467 23.7948 5.11467C29.9086 5.11467 30.6346 5.13868 33.0508 5.24792C35.2839 5.34964 36.4956 5.72446 37.3042 6.03605C38.3736 6.45064 39.1366 6.94845 39.9388 7.74978C40.741 8.55111 41.2357 9.31541 41.652 10.3851C41.9664 11.1915 42.3384 12.406 42.4399 14.6397C42.551 17.0567 42.5731 17.7801 42.5731 23.8984C42.5731 30.0167 42.551 30.7401 42.4399 33.1571C42.3382 35.3908 41.9644 36.6049 41.652 37.4117C41.2357 38.4814 40.7399 39.2446 39.9388 40.0452C39.1377 40.8458 38.3736 41.3425 37.3042 41.7589C36.498 42.0735 35.2839 42.4455 33.0508 42.5471C30.6366 42.6581 29.9113 42.6803 23.7948 42.6803C17.6783 42.6803 16.9551 42.6581 14.5415 42.5471ZM14.3519 1.12617C11.9136 1.23725 10.2474 1.62398 8.79239 2.19034C7.28547 2.7752 6.0098 3.55985 4.73505 4.83296C3.46029 6.10607 2.67788 7.38412 2.09319 8.89147C1.52699 10.3479 1.14037 12.0136 1.02933 14.4526C0.916461 16.8954 0.890625 17.6764 0.890625 23.8982C0.890625 30.1201 0.916461 30.901 1.02933 33.3439C1.14037 35.7831 1.52699 37.4486 2.09319 38.905C2.67788 40.4114 3.46047 41.6909 4.73505 42.9635C6.00962 44.236 7.28547 45.0196 8.79239 45.6061C10.2502 46.1725 11.9136 46.5592 14.3519 46.6703C16.7953 46.7813 17.5748 46.809 23.7948 46.809C30.0149 46.809 30.7956 46.7832 33.2377 46.6703C35.6762 46.5592 37.3413 46.1725 38.7972 45.6061C40.3032 45.0196 41.5798 44.2366 42.8546 42.9635C44.1293 41.6904 44.9101 40.4114 45.4964 38.905C46.0626 37.4486 46.4511 35.7829 46.5603 33.3439C46.6713 30.8992 46.6972 30.1201 46.6972 23.8982C46.6972 17.6764 46.6713 16.8954 46.5603 14.4526C46.4492 12.0134 46.0626 10.3469 45.4964 8.89147C44.9101 7.38504 44.1273 6.10808 42.8546 4.83296C41.5818 3.55784 40.3032 2.7752 38.7991 2.19034C37.3413 1.62398 35.676 1.23541 33.2396 1.12617C30.7974 1.0151 30.0167 0.987427 23.7966 0.987427C17.5766 0.987427 16.7953 1.01327 14.3519 1.12617Z" fill="white"/>
</svg>
