<svg width="48" height="40" viewBox="0 0 48 40" fill="none" xmlns="http://www.w3.org/2000/svg">
<path d="M47.5055 5.28498C45.9937 5.93619 44.4043 6.38965 42.7766 6.63417C43.5376 6.5036 44.6573 5.13265 45.103 4.57774C45.7801 3.7407 46.2962 2.78517 46.6249 1.75966C46.6249 1.68349 46.701 1.57469 46.6249 1.52028C46.5866 1.49933 46.5436 1.48835 46.4999 1.48835C46.4562 1.48835 46.4133 1.49933 46.3749 1.52028C44.6075 2.47824 42.7265 3.20937 40.7764 3.69641C40.7084 3.71719 40.6361 3.71905 40.5671 3.7018C40.4982 3.68455 40.4352 3.64883 40.385 3.59848C40.2332 3.41757 40.0698 3.24674 39.8958 3.08709C39.1004 2.37381 38.198 1.79002 37.2216 1.35708C35.9035 0.815849 34.4798 0.581455 33.058 0.671597C31.6784 0.758802 30.3315 1.12917 29.101 1.75966C27.8893 2.42438 26.8243 3.32742 25.9701 4.41453C25.0716 5.53343 24.423 6.83195 24.0677 8.22274C23.7748 9.54566 23.7416 10.913 23.9699 12.2486C23.9699 12.4771 23.9699 12.5097 23.7742 12.4771C16.0232 11.3346 9.66372 8.5818 4.46741 2.67363C4.23912 2.41249 4.11954 2.41249 3.93474 2.67363C1.67358 6.1119 2.77155 11.5522 5.59799 14.2397C5.97847 14.5988 6.36983 14.947 6.78292 15.2734C5.48702 15.1813 4.22276 14.8298 3.06506 14.2397C2.84764 14.0983 2.72806 14.1744 2.71719 14.4356C2.68637 14.7976 2.68637 15.1616 2.71719 15.5236C2.94402 17.2586 3.62717 18.9022 4.69679 20.2863C5.76641 21.6704 7.18411 22.7453 8.80492 23.4012C9.20003 23.5706 9.61174 23.6982 10.0333 23.782C8.83365 24.0184 7.60321 24.0552 6.39157 23.8908C6.13067 23.8364 6.03283 23.9779 6.13067 24.2281C7.7287 28.5804 11.1965 29.9078 13.7403 30.6477C14.0882 30.7021 14.4361 30.7021 14.8274 30.7891C14.8274 30.7891 14.8274 30.7891 14.7622 30.8544C14.0121 32.2254 10.9791 33.1502 9.58763 33.629C7.04782 34.5421 4.33991 34.8911 1.65184 34.6517C1.22787 34.5865 1.13003 34.5973 1.02132 34.6517C0.912613 34.7061 1.02132 34.8258 1.1409 34.9346C1.68445 35.2937 2.228 35.6092 2.79329 35.9139C4.47616 36.8326 6.25529 37.5624 8.09831 38.09C17.643 40.7231 28.3835 38.7864 35.5475 31.6596C41.1786 26.0669 43.1571 18.3526 43.1571 10.6274C43.1571 10.3336 43.5159 10.1595 43.7224 10.0072C45.1471 8.89613 46.403 7.58404 47.4511 6.1119C47.6326 5.89246 47.7257 5.61306 47.712 5.3285C47.712 5.16529 47.712 5.19793 47.5055 5.28498Z" fill="white"/>
</svg>
